<mxfile host="app.diagrams.net" agent="Mozilla/5.0 (Windows NT 10.0; Win64; x64) AppleWebKit/537.36 (KHTML, like Gecko) Chrome/128.0.0.0 Safari/537.36" version="24.7.10">
  <diagram name="Page-1" id="e7e014a7-5840-1c2e-5031-d8a46d1fe8dd">
    <mxGraphModel dx="45" dy="589" grid="1" gridSize="10" guides="1" tooltips="1" connect="1" arrows="1" fold="1" page="1" pageScale="1" pageWidth="1169" pageHeight="826" background="none" math="0" shadow="0">
      <root>
        <mxCell id="0" />
        <mxCell id="1" parent="0" />
        <mxCell id="kZQ03gNKZHDd4sTlV5Zk-167" value="Khách hàng" style="swimlane;whiteSpace=wrap" parent="1" vertex="1">
          <mxGeometry x="2040" y="90" width="330" height="410" as="geometry" />
        </mxCell>
        <mxCell id="kZQ03gNKZHDd4sTlV5Zk-168" value="" style="ellipse;shape=startState;fillColor=#000000;strokeColor=#ff0000;" parent="kZQ03gNKZHDd4sTlV5Zk-167" vertex="1">
          <mxGeometry x="100" y="40" width="30" height="30" as="geometry" />
        </mxCell>
        <mxCell id="kZQ03gNKZHDd4sTlV5Zk-169" value="" style="edgeStyle=elbowEdgeStyle;elbow=horizontal;verticalAlign=bottom;endArrow=open;endSize=8;strokeColor=#FF0000;endFill=1;rounded=0" parent="kZQ03gNKZHDd4sTlV5Zk-167" source="kZQ03gNKZHDd4sTlV5Zk-168" edge="1">
          <mxGeometry x="100" y="40" as="geometry">
            <mxPoint x="115.5" y="110" as="targetPoint" />
          </mxGeometry>
        </mxCell>
        <mxCell id="kZQ03gNKZHDd4sTlV5Zk-170" value="Yêu cầu hỗ trợ" style="rounded=1;whiteSpace=wrap;html=1;arcSize=40;fontColor=#000000;fillColor=#ffffc0;strokeColor=#ff0000;" parent="kZQ03gNKZHDd4sTlV5Zk-167" vertex="1">
          <mxGeometry x="60" y="112" width="120" height="40" as="geometry" />
        </mxCell>
        <mxCell id="kZQ03gNKZHDd4sTlV5Zk-171" value="Thông báo ưu đãi" style="rounded=1;whiteSpace=wrap;html=1;arcSize=40;fontColor=#000000;fillColor=#ffffc0;strokeColor=#ff0000;" parent="kZQ03gNKZHDd4sTlV5Zk-167" vertex="1">
          <mxGeometry x="55" y="280" width="120" height="40" as="geometry" />
        </mxCell>
        <mxCell id="kZQ03gNKZHDd4sTlV5Zk-172" value="Nhân viên hỗ trợ" style="swimlane;whiteSpace=wrap" parent="1" vertex="1">
          <mxGeometry x="2370" y="90" width="281" height="410" as="geometry" />
        </mxCell>
        <mxCell id="kZQ03gNKZHDd4sTlV5Zk-173" value="Viết phiếu hỗ trợ" style="rounded=1;whiteSpace=wrap;html=1;arcSize=40;fontColor=#000000;fillColor=#ffffc0;strokeColor=#ff0000;" parent="kZQ03gNKZHDd4sTlV5Zk-172" vertex="1">
          <mxGeometry x="52" y="110" width="120" height="40" as="geometry" />
        </mxCell>
        <mxCell id="kZQ03gNKZHDd4sTlV5Zk-174" value="" style="shape=line;html=1;strokeWidth=6;strokeColor=#ff0000;" parent="kZQ03gNKZHDd4sTlV5Zk-172" vertex="1">
          <mxGeometry x="56" y="180" width="112" height="10" as="geometry" />
        </mxCell>
        <mxCell id="kZQ03gNKZHDd4sTlV5Zk-175" value="" style="edgeStyle=orthogonalEdgeStyle;html=1;verticalAlign=bottom;endArrow=open;endSize=8;strokeColor=#ff0000;rounded=0;exitX=0.5;exitY=1;exitDx=0;exitDy=0;" parent="kZQ03gNKZHDd4sTlV5Zk-172" source="kZQ03gNKZHDd4sTlV5Zk-173" target="kZQ03gNKZHDd4sTlV5Zk-174" edge="1">
          <mxGeometry relative="1" as="geometry">
            <mxPoint x="95.5" y="492" as="targetPoint" />
            <Array as="points" />
          </mxGeometry>
        </mxCell>
        <mxCell id="kZQ03gNKZHDd4sTlV5Zk-176" value="" style="ellipse;shape=endState;fillColor=#000000;strokeColor=#ff0000" parent="kZQ03gNKZHDd4sTlV5Zk-172" vertex="1">
          <mxGeometry x="97" y="343" width="30" height="32" as="geometry" />
        </mxCell>
        <mxCell id="kZQ03gNKZHDd4sTlV5Zk-177" value="Nhân viên hỗ trợ" style="swimlane;whiteSpace=wrap" parent="kZQ03gNKZHDd4sTlV5Zk-172" vertex="1">
          <mxGeometry width="281" height="410" as="geometry" />
        </mxCell>
        <mxCell id="kZQ03gNKZHDd4sTlV5Zk-178" value="Viết phiếu hỗ trợ" style="rounded=1;whiteSpace=wrap;html=1;arcSize=40;fontColor=#000000;fillColor=#ffffc0;strokeColor=#ff0000;" parent="kZQ03gNKZHDd4sTlV5Zk-177" vertex="1">
          <mxGeometry x="52" y="110" width="120" height="40" as="geometry" />
        </mxCell>
        <mxCell id="kZQ03gNKZHDd4sTlV5Zk-179" value="" style="shape=line;html=1;strokeWidth=6;strokeColor=#ff0000;" parent="kZQ03gNKZHDd4sTlV5Zk-177" vertex="1">
          <mxGeometry x="56" y="180" width="112" height="10" as="geometry" />
        </mxCell>
        <mxCell id="kZQ03gNKZHDd4sTlV5Zk-180" value="" style="edgeStyle=orthogonalEdgeStyle;html=1;verticalAlign=bottom;endArrow=open;endSize=8;strokeColor=#ff0000;rounded=0;exitX=0.5;exitY=1;exitDx=0;exitDy=0;" parent="kZQ03gNKZHDd4sTlV5Zk-177" source="kZQ03gNKZHDd4sTlV5Zk-178" target="kZQ03gNKZHDd4sTlV5Zk-179" edge="1">
          <mxGeometry relative="1" as="geometry">
            <mxPoint x="95.5" y="492" as="targetPoint" />
            <Array as="points" />
          </mxGeometry>
        </mxCell>
        <mxCell id="kZQ03gNKZHDd4sTlV5Zk-181" value="" style="ellipse;shape=endState;fillColor=#000000;strokeColor=#ff0000" parent="kZQ03gNKZHDd4sTlV5Zk-177" vertex="1">
          <mxGeometry x="97" y="343" width="30" height="32" as="geometry" />
        </mxCell>
        <mxCell id="kZQ03gNKZHDd4sTlV5Zk-182" value="" style="edgeStyle=orthogonalEdgeStyle;html=1;verticalAlign=bottom;endArrow=open;endSize=8;strokeColor=#ff0000;rounded=0;entryX=0;entryY=0.5;entryDx=0;entryDy=0;" parent="1" source="kZQ03gNKZHDd4sTlV5Zk-170" edge="1">
          <mxGeometry relative="1" as="geometry">
            <mxPoint x="2425" y="222" as="targetPoint" />
          </mxGeometry>
        </mxCell>
        <mxCell id="kZQ03gNKZHDd4sTlV5Zk-183" value="Hệ thống" style="swimlane;whiteSpace=wrap" parent="1" vertex="1">
          <mxGeometry x="2650" y="90" width="281" height="410" as="geometry" />
        </mxCell>
        <mxCell id="kZQ03gNKZHDd4sTlV5Zk-184" value="Lưu phiếu hỗ trợ" style="rounded=1;whiteSpace=wrap;html=1;arcSize=40;fontColor=#000000;fillColor=#ffffc0;strokeColor=#ff0000;" parent="kZQ03gNKZHDd4sTlV5Zk-183" vertex="1">
          <mxGeometry x="68" y="200" width="120" height="40" as="geometry" />
        </mxCell>
        <mxCell id="kZQ03gNKZHDd4sTlV5Zk-185" value="" style="edgeStyle=orthogonalEdgeStyle;html=1;verticalAlign=bottom;endArrow=open;endSize=8;strokeColor=#ff0000;rounded=0;entryX=0;entryY=0.5;entryDx=0;entryDy=0;exitX=0.75;exitY=0.5;exitDx=0;exitDy=0;exitPerimeter=0;" parent="1" source="kZQ03gNKZHDd4sTlV5Zk-174" target="kZQ03gNKZHDd4sTlV5Zk-184" edge="1">
          <mxGeometry relative="1" as="geometry">
            <mxPoint x="2668" y="220" as="targetPoint" />
            <mxPoint x="2510" y="290" as="sourcePoint" />
            <Array as="points">
              <mxPoint x="2510" y="310" />
            </Array>
          </mxGeometry>
        </mxCell>
        <mxCell id="kZQ03gNKZHDd4sTlV5Zk-186" value="" style="edgeStyle=orthogonalEdgeStyle;html=1;verticalAlign=bottom;endArrow=open;endSize=8;strokeColor=#ff0000;rounded=0;entryX=0.5;entryY=0;entryDx=0;entryDy=0;exitX=0.327;exitY=0.537;exitDx=0;exitDy=0;exitPerimeter=0;" parent="1" source="kZQ03gNKZHDd4sTlV5Zk-174" target="kZQ03gNKZHDd4sTlV5Zk-171" edge="1">
          <mxGeometry relative="1" as="geometry">
            <mxPoint x="3200" y="260" as="targetPoint" />
            <mxPoint x="3200" y="230" as="sourcePoint" />
            <Array as="points">
              <mxPoint x="2463" y="340" />
              <mxPoint x="2155" y="340" />
            </Array>
          </mxGeometry>
        </mxCell>
        <mxCell id="kZQ03gNKZHDd4sTlV5Zk-187" value="" style="edgeStyle=orthogonalEdgeStyle;html=1;verticalAlign=bottom;endArrow=open;endSize=8;strokeColor=#ff0000;rounded=0;entryX=0;entryY=0.5;entryDx=0;entryDy=0;" parent="1" source="kZQ03gNKZHDd4sTlV5Zk-171" target="kZQ03gNKZHDd4sTlV5Zk-176" edge="1">
          <mxGeometry relative="1" as="geometry">
            <mxPoint x="2530" y="410" as="targetPoint" />
            <mxPoint x="2215" y="390" as="sourcePoint" />
            <Array as="points">
              <mxPoint x="2220" y="390" />
              <mxPoint x="2220" y="449" />
            </Array>
          </mxGeometry>
        </mxCell>
      </root>
    </mxGraphModel>
  </diagram>
</mxfile>
